<svg id="Layer_1" data-name="Layer 1" xmlns="http://www.w3.org/2000/svg" viewBox="0 0 111.25 30.88"><defs><style>.cls-1{fill:#106fde;}</style></defs><title>logo-mav</title><path class="cls-1" d="M44.11 27.27a2.44 2.44 0 0 0 1.36 1.25 7.23 7.23 0 0 0 2.54.36v1.19q-5.22-.22-6.83-.22t-6.36.22v-1.19a5.45 5.45 0 0 0 2.21-.36 2.28 2.28 0 0 0 1.17-1.25 6.53 6.53 0 0 0 .38-2.47V8.36a19.91 19.91 0 0 0-.25-3.51 3.78 3.78 0 0 0-1.19-2.19 4.22 4.22 0 0 0-2.89-.85 6.22 6.22 0 0 0-3.92 1.36 9.09 9.09 0 0 0-2.75 3.72 13.26 13.26 0 0 0-1 5.22V24.8a5.77 5.77 0 0 0 .43 2.47 2.44 2.44 0 0 0 1.35 1.25 7.11 7.11 0 0 0 2.53.36v1.19q-5.22-.22-6.8-.22t-6.39.22v-1.19a5.56 5.56 0 0 0 2.22-.36 2.21 2.21 0 0 0 1.17-1.25 6.77 6.77 0 0 0 .36-2.47V8.36a19.91 19.91 0 0 0-.25-3.51 3.78 3.78 0 0 0-1.19-2.19 4.17 4.17 0 0 0-2.86-.85 6.22 6.22 0 0 0-3.94 1.37 9.17 9.17 0 0 0-2.75 3.75 13.35 13.35 0 0 0-1 5.23V24.8a6.53 6.53 0 0 0 .38 2.47 2.27 2.27 0 0 0 1.18 1.25 5.56 5.56 0 0 0 2.22.36v1.19q-4.78-.22-6.39-.22t-6.83.22v-1.19a7.23 7.23 0 0 0 2.54-.36 2.44 2.44 0 0 0 1.36-1.25 5.77 5.77 0 0 0 .43-2.47V7a6.13 6.13 0 0 0-1-3.83A4.11 4.11 0 0 0-.02 1.98V.77q1.78.17 3.53.17A18.84 18.84 0 0 0 9.43.16v6.69a10.8 10.8 0 0 1 3.89-5.18 9.56 9.56 0 0 1 5.44-1.68 7.82 7.82 0 0 1 5.92 2.14 7.94 7.94 0 0 1 1.75 4.58A9.65 9.65 0 0 1 35.9-.01a7.82 7.82 0 0 1 5.91 2.14 6.47 6.47 0 0 1 1.44 2.9 20.5 20.5 0 0 1 .42 4.57v15.19a5.77 5.77 0 0 0 .44 2.48zM65.69 2.34a5.72 5.72 0 0 0-3.9-1.21q-4 0-5.64 2a3.48 3.48 0 0 1 2.67 3.47 2.9 2.9 0 0 1-.9 2.26 3.48 3.48 0 0 1-2.43.82 2.8 2.8 0 0 1-2.26-1 3.83 3.83 0 0 1-.82-2.55q0-2.22 2.67-4.05A13 13 0 0 1 58.51.55a15.82 15.82 0 0 1 4.54-.61 13.49 13.49 0 0 1 4.11.57 6.77 6.77 0 0 1 2.78 1.57 7 7 0 0 1 1.79 3.1 19.16 19.16 0 0 1 .49 4.87v15.8a4 4 0 0 0 .4 2.05 1.47 1.47 0 0 0 1.35.64 2.7 2.7 0 0 0 1.28-.31 7.32 7.32 0 0 0 1.28-.89l.64 1q-1 .75-1.67 1.17a6 6 0 0 1-1.53.67 7.18 7.18 0 0 1-2 .25q-2.75 0-3.82-1.37a5.83 5.83 0 0 1-1.07-3.68 9.87 9.87 0 0 1-4 3.9 10.63 10.63 0 0 1-4.75 1.15 9.33 9.33 0 0 1-3.61-.68 5.83 5.83 0 0 1-2.62-2.11 6.14 6.14 0 0 1-1-3.57 6.33 6.33 0 0 1 1.06-3.69 9.45 9.45 0 0 1 3-2.68 42 42 0 0 1 5.14-2.51l2.72-1.11a10.64 10.64 0 0 0 3.12-1.78 2.62 2.62 0 0 0 1-1.94V6.83q-.08-3.28-1.45-4.49zm0 11.57q-1 .56-4.05 2.05a17.94 17.94 0 0 0-2.78 1.6 7 7 0 0 0-1.94 2.21 6.71 6.71 0 0 0-.8 3.42 5.1 5.1 0 0 0 1.25 3.73 4.43 4.43 0 0 0 3.3 1.26q3.78 0 6.41-4.3V12.71a4 4 0 0 1-1.41 1.2zM100.55.94q2.5 0 4.3-.17v1.14a3.4 3.4 0 0 0-2 1 8.42 8.42 0 0 0-1.67 3l-9.33 24.44h-.96L80.39 5.16a6.38 6.38 0 0 0-1.65-2.58 2.75 2.75 0 0 0-1.65-.61V.77q2.94.22 5 .22 4.36 0 7.39-.22v1.19a19.18 19.18 0 0 0-2.21.1 2.51 2.51 0 0 0-1.31.51 1.62 1.62 0 0 0-.51 1.33 7.29 7.29 0 0 0 .61 2.5l7 17.3 6.33-16.43a7.49 7.49 0 0 0 .61-2.64 2.15 2.15 0 0 0-1-1.94 7 7 0 0 0-3.19-.78V.77q2.91.17 4.74.17zM109.39 24.07a3.55 3.55 0 0 1 1.33 1.33 3.6 3.6 0 0 1 .49 1.82 3.52 3.52 0 0 1-.49 1.8 3.69 3.69 0 0 1-1.33 1.33 3.56 3.56 0 0 1-3.64 0 3.69 3.69 0 0 1-1.33-1.33 3.53 3.53 0 0 1-.49-1.8 3.6 3.6 0 0 1 .49-1.82 3.55 3.55 0 0 1 1.37-1.33 3.64 3.64 0 0 1 3.6 0z"/></svg>